<svg width="32" height="32" viewBox="0 0 32 32" fill="none" xmlns="http://www.w3.org/2000/svg">
<g id="desktop">
<path id="Vector" d="M25.3327 4H6.66602C5.60515 4 4.58773 4.42143 3.83759 5.17157C3.08744 5.92172 2.66602 6.93913 2.66602 8V18.6667C2.66602 19.7275 3.08744 20.7449 3.83759 21.4951C4.58773 22.2452 5.60515 22.6667 6.66602 22.6667H14.666V25.3333H9.33268C8.97906 25.3333 8.63992 25.4738 8.38987 25.7239C8.13983 25.9739 7.99935 26.313 7.99935 26.6667C7.99935 27.0203 8.13983 27.3594 8.38987 27.6095C8.63992 27.8595 8.97906 28 9.33268 28H22.666C23.0196 28 23.3588 27.8595 23.6088 27.6095C23.8589 27.3594 23.9993 27.0203 23.9993 26.6667C23.9993 26.313 23.8589 25.9739 23.6088 25.7239C23.3588 25.4738 23.0196 25.3333 22.666 25.3333H17.3327V22.6667H25.3327C26.3935 22.6667 27.411 22.2452 28.1611 21.4951C28.9113 20.7449 29.3327 19.7275 29.3327 18.6667V8C29.3327 6.93913 28.9113 5.92172 28.1611 5.17157C27.411 4.42143 26.3935 4 25.3327 4ZM26.666 18.6667C26.666 19.0203 26.5255 19.3594 26.2755 19.6095C26.0254 19.8595 25.6863 20 25.3327 20H6.66602C6.31239 20 5.97326 19.8595 5.72321 19.6095C5.47316 19.3594 5.33268 19.0203 5.33268 18.6667V8C5.33268 7.64638 5.47316 7.30724 5.72321 7.05719C5.97326 6.80714 6.31239 6.66667 6.66602 6.66667H25.3327C25.6863 6.66667 26.0254 6.80714 26.2755 7.05719C26.5255 7.30724 26.666 7.64638 26.666 8V18.6667Z" fill="#10C8A0"/>
</g>
</svg>
